<svg xmlns="http://www.w3.org/2000/svg" viewBox="0 0 1280 720" width="1280" height="720">
  <defs>
    <linearGradient id="gradient1" x1="0%" y1="0%" x2="100%" y2="100%">
      <stop offset="0%" style="stop-color:#6366F1" />
      <stop offset="100%" style="stop-color:#06B6D4" />
    </linearGradient>
  </defs>
  
  
  <rect width="1280" height="720" fill="#FAFBFC" />
  <rect x="0" y="0" width="1280" height="4" fill="url(#gradient1)" />
  
  
  <text x="60" y="65" font-family="system-ui, -apple-system, sans-serif" font-size="30" font-weight="bold" fill="#1F2937">
    快速开始：三步即可使用
  </text>
  <text x="60" y="100" font-family="system-ui, -apple-system, sans-serif" font-size="15" fill="#6B7280">
    无需复杂配置，克隆仓库后即可开始创作
  </text>
  
  <line x1="60" y1="120" x2="1220" y2="120" stroke="#E5E7EB" stroke-width="1" />
  
  
  <g transform="translate(60, 150)">
    
    <g>
      <path fill="#FFFFFF" stroke="#6366F1" stroke-width="2" d="M16,0 H334 A16,16 0 0 1 350,16 V234 A16,16 0 0 1 334,250 H16 A16,16 0 0 1 0,234 V16 A16,16 0 0 1 16,0 Z" />
      
      <circle cx="175" cy="45" r="30" fill="#6366F1" />
      <text x="175" y="55" font-family="system-ui, -apple-system, sans-serif" font-size="24" font-weight="bold" text-anchor="middle" fill="#FFFFFF">1</text>
      
      <text x="175" y="100" font-family="system-ui, -apple-system, sans-serif" font-size="17" font-weight="bold" text-anchor="middle" fill="#1F2937">克隆仓库</text>
      
      <path fill="#1F2937" d="M28,120 H322 A8,8 0 0 1 330,128 V162 A8,8 0 0 1 322,170 H28 A8,8 0 0 1 20,162 V128 A8,8 0 0 1 28,120 Z" />
      <text x="30" y="142" font-family="monospace" font-size="11" fill="#10B981">git clone</text>
      <text x="30" y="160" font-family="monospace" font-size="9" fill="#F59E0B">https://github.com/hugohe3/ppt-master</text>
      
      <text x="175" y="195" font-family="system-ui, -apple-system, sans-serif" font-size="12" text-anchor="middle" fill="#6B7280">或在编辑器中直接 Clone</text>
      
      <path fill="#D1FAE5" d="M26,215 H324 A6,6 0 0 1 330,221 V233 A6,6 0 0 1 324,239 H26 A6,6 0 0 1 20,233 V221 A6,6 0 0 1 26,215 Z" />
      <text x="175" y="232" font-family="system-ui, -apple-system, sans-serif" font-size="10" text-anchor="middle" fill="#10B981">✨ 推荐: Antigravity / Cursor / VS Code</text>
    </g>
    
    
    <g transform="translate(358, 110)">
      <line x1="0" y1="0" x2="35" y2="0" stroke="#6366F1" stroke-width="2" />
      <polygon points="35,-5 48,0 35,5" fill="#6366F1" />
    </g>
    
    
    <g transform="translate(405, 0)">
      <path fill="#FFFFFF" stroke="#06B6D4" stroke-width="2" d="M16,0 H334 A16,16 0 0 1 350,16 V234 A16,16 0 0 1 334,250 H16 A16,16 0 0 1 0,234 V16 A16,16 0 0 1 16,0 Z" />
      
      <circle cx="175" cy="45" r="30" fill="#06B6D4" />
      <text x="175" y="55" font-family="system-ui, -apple-system, sans-serif" font-size="24" font-weight="bold" text-anchor="middle" fill="#FFFFFF">2</text>
      
      <text x="175" y="100" font-family="system-ui, -apple-system, sans-serif" font-size="17" font-weight="bold" text-anchor="middle" fill="#1F2937">打开 AI 聊天</text>
      
      <path fill="#FAFBFC" stroke="#E5E7EB" stroke-width="1" d="M28,120 H322 A8,8 0 0 1 330,128 V197 A8,8 0 0 1 322,205 H28 A8,8 0 0 1 20,197 V128 A8,8 0 0 1 28,120 Z" />
      <path fill="#06B6D4" d="M34,130 H91 A4,4 0 0 1 95,134 V146 A4,4 0 0 1 91,150 H34 A4,4 0 0 1 30,146 V134 A4,4 0 0 1 34,130 Z" />
      <text x="62" y="144" font-family="system-ui, -apple-system, sans-serif" font-size="10" text-anchor="middle" fill="#FFFFFF">Chat</text>
      
      <text x="35" y="172" font-family="system-ui, -apple-system, sans-serif" font-size="11" fill="#6B7280">打开 AI 聊天面板...</text>
      <path fill="#FFFFFF" stroke="#E5E7EB" stroke-width="1" d="M34,180 H306 A4,4 0 0 1 310,184 V194 A4,4 0 0 1 306,198 H34 A4,4 0 0 1 30,194 V184 A4,4 0 0 1 34,180 Z" />
      <text x="40" y="193" font-family="system-ui, -apple-system, sans-serif" font-size="9" fill="#9CA3AF">输入你的需求...</text>
      
      <text x="175" y="235" font-family="system-ui, -apple-system, sans-serif" font-size="11" text-anchor="middle" fill="#6B7280">Antigravity 免费使用 Opus 4.5</text>
    </g>
    
    
    <g transform="translate(763, 110)">
      <line x1="0" y1="0" x2="35" y2="0" stroke="#6366F1" stroke-width="2" />
      <polygon points="35,-5 48,0 35,5" fill="#6366F1" />
    </g>
    
    
    <g transform="translate(810, 0)">
      <path fill="#FFFFFF" stroke="#10B981" stroke-width="2" d="M16,0 H334 A16,16 0 0 1 350,16 V234 A16,16 0 0 1 334,250 H16 A16,16 0 0 1 0,234 V16 A16,16 0 0 1 16,0 Z" />
      
      <circle cx="175" cy="45" r="30" fill="#10B981" />
      <text x="175" y="55" font-family="system-ui, -apple-system, sans-serif" font-size="24" font-weight="bold" text-anchor="middle" fill="#FFFFFF">3</text>
      
      <text x="175" y="100" font-family="system-ui, -apple-system, sans-serif" font-size="17" font-weight="bold" text-anchor="middle" fill="#1F2937">开始对话</text>
      
      <path fill="#FAFBFC" stroke="#E5E7EB" stroke-width="1" d="M28,120 H322 A8,8 0 0 1 330,128 V197 A8,8 0 0 1 322,205 H28 A8,8 0 0 1 20,197 V128 A8,8 0 0 1 28,120 Z" />
      
      <path fill="#EEF2FF" d="M116,128 H284 A6,6 0 0 1 290,134 V150 A6,6 0 0 1 284,156 H116 A6,6 0 0 1 110,150 V134 A6,6 0 0 1 116,128 Z" />
      <text x="120" y="146" font-family="system-ui, -apple-system, sans-serif" font-size="9" fill="#1F2937">我需要制作一份 Q3 报告 PPT</text>
      
      <path fill="#F5F3FF" d="M36,164 H234 A6,6 0 0 1 240,170 V192 A6,6 0 0 1 234,198 H36 A6,6 0 0 1 30,192 V170 A6,6 0 0 1 36,164 Z" />
      <text x="40" y="178" font-family="system-ui, -apple-system, sans-serif" font-size="8" fill="#6366F1">🎯 Strategist: 好的，让我先确认</text>
      <text x="40" y="191" font-family="system-ui, -apple-system, sans-serif" font-size="8" fill="#6366F1">七项设计参数...</text>
      
      <text x="175" y="235" font-family="system-ui, -apple-system, sans-serif" font-size="11" text-anchor="middle" fill="#6B7280">AI 自动按角色协作工作</text>
    </g>
  </g>
  
  
  <g transform="translate(60, 430)">
    <path fill="#FFFFFF" stroke="#E5E7EB" stroke-width="1" d="M16,0 H1144 A16,16 0 0 1 1160,16 V99 A16,16 0 0 1 1144,115 H16 A16,16 0 0 1 0,99 V16 A16,16 0 0 1 16,0 Z" />
    <text x="20" y="32" font-family="system-ui, -apple-system, sans-serif" font-size="15" font-weight="bold" fill="#1F2937">💬 示例对话</text>
    <line x1="20" y1="45" x2="1140" y2="45" stroke="#E5E7EB" stroke-width="1" />
    
    <g transform="translate(20, 62)" font-family="system-ui, -apple-system, sans-serif" font-size="13">
      <text x="0" y="0" fill="#06B6D4" font-weight="bold">用户:</text>
      <text x="50" y="0" fill="#1F2937">我有一份市场分析报告，需要做成 PPT</text>
      
      <text x="0" y="25" fill="#6366F1" font-weight="bold">Strategist:</text>
      <text x="80" y="25" fill="#1F2937">好的！在开始前，我需要确认七项内容：1️⃣ 画布格式  2️⃣ 页数  3️⃣ 设计风格...</text>
      
      <text x="0" y="48" fill="#9CA3AF" font-style="italic">→ AI 会主动提供专业建议，确认后自动进入生成流程</text>
    </g>
  </g>
  
  
  <line x1="60" y1="660" x2="1220" y2="660" stroke="#E5E7EB" stroke-width="1" />
  <text x="60" y="690" font-family="system-ui, -apple-system, sans-serif" font-size="12" fill="#9CA3AF">PPT Master - 快速开始</text>
  <text x="640" y="690" font-family="system-ui, -apple-system, sans-serif" font-size="12" text-anchor="middle" fill="#9CA3AF">09 / 10</text>
  <text x="1220" y="690" font-family="system-ui, -apple-system, sans-serif" font-size="12" text-anchor="end" fill="#9CA3AF">github.com/hugohe3/ppt-master</text>
</svg>